<?xml version="1.0" standalone="no"?>
<!DOCTYPE svg PUBLIC "-//W3C//DTD SVG 20010904//EN"
 "http://www.w3.org/TR/2001/REC-SVG-20010904/DTD/svg10.dtd">
<svg version="1.0" xmlns="http://www.w3.org/2000/svg"
 width="200" height="100" viewBox="0 0 1418.936 865"
 preserveAspectRatio="xMidYMid meet">

<g transform="translate(0.000000,720.000000) scale(0.100000,-0.100000)"
fill="#000000" stroke="none">
<path d="M0 3600 l0 -3600 425 0 425 0 0 1425 c0 1208 2 1430 14 1453 18 35
62 75 105 96 31 15 338 16 3916 16 3373 0 3887 -2 3916 -15 47 -20 84 -53 108
-98 21 -37 21 -42 21 -1457 l0 -1420 335 0 335 0 0 3600 0 3600 -4800 0 -4800
0 0 -3600z m3635 2325 l0 -160 -450 -5 -450 -5 -3 -1198 -2 -1197 -178 2 -177
3 -3 1198 -2 1197 -450 0 -450 0 0 165 0 165 1083 -2 1082 -3 0 -160z m4235 0
l0 -165 -450 0 -450 0 -2 -1197 -3 -1198 -177 -3 -178 -2 0 1200 0 1200 -449
0 c-420 0 -450 1 -454 18 -8 29 -9 182 -1 249 l6 63 1079 0 1079 0 0 -165z
m-3668 -587 c14 -12 259 -381 383 -576 56 -89 59 -92 75 -75 10 10 93 126 186
258 234 334 250 357 274 383 21 22 26 23 211 22 138 -1 189 -5 189 -13 0 -7
-26 -48 -57 -92 -69 -97 -419 -595 -481 -685 -25 -36 -60 -86 -79 -111 -18
-26 -33 -52 -33 -58 0 -6 28 -51 63 -99 35 -48 101 -143 148 -212 95 -139 417
-603 461 -664 15 -21 28 -43 28 -48 0 -4 -91 -7 -202 -6 l-203 3 -177 265
c-97 146 -207 313 -245 372 -37 60 -72 108 -78 108 -10 -1 -46 -50 -253 -355
-68 -99 -156 -227 -196 -285 l-73 -105 -201 -3 c-111 -1 -202 1 -202 5 0 5 37
60 81 123 45 63 100 142 124 175 193 274 325 462 413 586 32 46 66 96 75 110
l17 26 -264 379 c-146 208 -294 421 -331 472 -36 51 -63 97 -60 102 10 16 388
13 407 -2z"/>
<path d="M1887 2127 c-3 -8 -4 -40 -3 -73 2 -32 4 -508 4 -1056 l2 -998 255 0
255 0 0 278 c0 357 14 486 64 592 66 139 203 212 371 197 109 -10 177 -52 219
-136 31 -61 46 -273 46 -654 l0 -277 255 0 255 0 0 433 c0 320 -4 455 -14 522
-39 247 -156 394 -374 472 -120 42 -373 50 -464 14 -152 -60 -202 -89 -289
-169 -31 -29 -60 -52 -63 -52 -3 0 -7 206 -8 458 l-3 457 -251 3 c-205 2 -253
0 -257 -11z"/>
<path d="M6327 2134 c-4 -4 -7 -486 -7 -1071 l0 -1063 331 0 331 0 -30 37
c-93 120 -135 333 -113 577 21 224 96 353 246 423 53 25 72 28 155 28 82 0
102 -4 151 -27 132 -64 216 -202 238 -393 29 -245 -2 -476 -80 -593 -16 -24
-29 -45 -29 -48 0 -2 128 -4 284 -4 l284 0 15 42 c53 149 70 338 57 594 -8
137 -18 188 -63 319 -82 237 -285 428 -522 490 -92 24 -322 22 -400 -3 -62
-20 -156 -61 -165 -72 -3 -3 -21 -17 -40 -30 -19 -12 -56 -44 -82 -69 l-48
-45 -1 89 c-1 50 -3 254 -3 455 l-2 365 -250 3 c-138 1 -253 -1 -257 -4z"/>
<path d="M4112 1421 c-11 -6 -12 -138 -9 -692 2 -376 7 -694 11 -706 l8 -23
278 0 278 0 -20 41 c-28 58 -37 284 -38 895 0 430 -2 483 -16 488 -24 9 -477
7 -492 -3z"/>
<path d="M5323 1423 c-10 -4 -13 -120 -13 -534 0 -653 -8 -743 -75 -849 l-25
-40 310 0 310 0 0 709 c0 637 -2 709 -16 715 -19 7 -473 7 -491 -1z"/>
</g>
</svg>
